<svg id="Capa_1" enable-background="new 0 0 502 502" height="512" viewBox="0 0 502 502" width="512" xmlns="http://www.w3.org/2000/svg" xmlns:xlink="http://www.w3.org/1999/xlink"><linearGradient id="SVGID_1_" gradientUnits="userSpaceOnUse" x1="251" x2="251" y1="356.255" y2="31.314"><stop offset="0" stop-color="#f4c22c"/><stop offset="1" stop-color="#f9e198"/></linearGradient><linearGradient id="lg1"><stop offset="0" stop-color="#89c65e"/><stop offset="1" stop-color="#bcd986"/></linearGradient><linearGradient id="SVGID_2_" gradientUnits="userSpaceOnUse" x1="251" x2="251" xlink:href="#lg1" y1="457.577" y2="507.111"/><linearGradient id="SVGID_3_" gradientUnits="userSpaceOnUse" x1="249.788" x2="414.972" xlink:href="#lg1" y1="325.156" y2="325.156"/><linearGradient id="SVGID_4_" gradientUnits="userSpaceOnUse" x1="96.445" x2="312.021" xlink:href="#lg1" y1="325.156" y2="325.156"/><g><path d="m237.25 97.487c-6.743 0-12.209-5.466-12.209-12.209 0-34.662 16.906-67.428 43.069-83.475 5.749-3.527 13.265-1.725 16.79 4.023 3.526 5.748 1.724 13.265-4.024 16.79-19.086 11.706-31.418 36.302-31.418 62.661.001 6.744-5.465 12.21-12.208 12.21z" fill="#a37460"/><path d="m242.295 82.881c-5.779-3.474-7.648-10.974-4.174-16.753 14.563-24.229 38.087-38.127 69.92-41.31 6.696-.678 12.691 4.224 13.362 10.933s-4.225 12.692-10.934 13.362c-24.079 2.407-40.899 12.087-51.421 29.593-3.478 5.788-10.979 7.644-16.753 4.175z" fill="#a37460"/><path d="m364.251 310.269c0-25.829-2.295-59.71-8.026-94.283 8.927-7.604 14.596-18.92 14.596-31.566 0-15.11-8.088-28.324-20.168-35.568-3.112-1.866-4.359-5.665-3.001-9.029 8.528-21.126-1.887-45.926-23.647-54.182-2.779-1.054-4.69-3.567-4.956-6.527-1.91-21.228-19.768-37.665-41.278-37.665-8.316 0-16.057 2.453-22.546 6.671-2.586 1.681-5.867 1.681-8.454 0-6.489-4.217-14.23-6.671-22.546-6.671-21.485 0-39.367 16.419-41.278 37.665-.266 2.96-2.177 5.472-4.956 6.526-21.757 8.255-32.177 33.053-23.647 54.181 1.358 3.365.111 7.165-3.001 9.031-12.079 7.244-20.167 20.457-20.167 35.567 0 12.646 5.669 23.962 14.596 31.566-5.73 34.573-8.026 68.455-8.026 94.283h226.505z" fill="url(#SVGID_1_)"/><path d="m363.202 160.506c-20.507 4.56-40.144 13.403-58.669 26.456-19.078 13.442-37.034 31.5-53.533 53.77-8.319-11.228-17.009-21.38-26.026-30.411-7.517-7.529-19.97-6.627-26.356 1.883-5.206 6.937-4.572 16.667 1.56 22.801 20.159 20.164 36.985 45.539 50.822 71.998 27.127-51.872 65.723-99.608 118.444-112.008.89-3.377 1.378-6.917 1.378-10.575 0-8.915-2.831-17.156-7.62-23.914z" fill="#fcb500"/><path d="m290.871 439.355h-79.741l4.982 41.64c1.432 11.984 11.597 21.005 23.667 21.005h22.443c12.069 0 22.234-9.021 23.668-21.005z" fill="url(#SVGID_2_)"/><path d="m209.174 414.076c-5.892 20.49 8.029 41.504 29.235 43.708 4.132.43 8.334.65 12.591.65 61.306 0 111.004-45.74 111.004-102.163 0-64.188 20.734-109.031 55.918-133.798 12.466-8.775 7.313-28.212-7.844-29.852-117.173-12.677-177.439 139.851-200.904 221.455z" fill="url(#SVGID_3_)"/><path d="m326.462 404.404c-5.026-17.48-11.731-38.286-20.333-60.261-3.86-9.862-15.517-14.081-24.781-8.95-7.661 4.243-11.01 13.505-7.819 21.66 8.101 20.703 14.477 40.46 19.297 57.224 5.865 20.396-7.905 41.304-28.946 43.669 25.243-2.686 47.906-13.161 65.076-28.752.629-8.177-.166-16.495-2.494-24.59z" fill="#6dab65"/><path d="m292.826 414.076c5.892 20.49-8.029 41.504-29.235 43.708-4.132.43-8.334.65-12.591.65-61.306 0-111.004-45.74-111.004-102.163 0-64.188-20.734-109.031-55.918-133.798-12.466-8.775-7.313-28.212 7.844-29.852 117.174-12.677 177.439 139.851 200.904 221.455z" fill="url(#SVGID_4_)"/><g><ellipse cx="163.115" cy="189.317" fill="#ff8392" rx="14.936" ry="12.003"/><ellipse cx="338.886" cy="189.317" fill="#ff8392" rx="14.936" ry="12.003"/><circle cx="188.721" cy="159.699" fill="#fff" r="29.618"/><circle cx="313.279" cy="159.699" fill="#fff" r="29.618"/><g fill="#3b3b44"><g><ellipse cx="188.721" cy="159.699" rx="17.652" ry="17.652" transform="matrix(.139 -.99 .99 .139 4.277 324.32)"/><ellipse cx="313.279" cy="159.699" rx="17.652" ry="17.652" transform="matrix(.916 -.402 .402 .916 -37.759 139.209)"/></g><path d="m251 190.259c-5.247 0-10.495-1.984-14.775-5.954-2.025-1.878-2.145-5.041-.267-7.066 1.877-2.025 5.042-2.143 7.065-.267 4.697 4.354 11.256 4.354 15.953 0 2.023-1.876 5.188-1.759 7.065.267 1.878 2.025 1.759 5.189-.267 7.066-4.279 3.97-9.527 5.954-14.774 5.954z"/></g></g><g fill="#c7f0b6"><path d="m167.513 327.706c-4.933 0-9.226-3.649-9.898-8.672-.393-2.929-.843-5.871-1.337-8.742-.938-5.443 2.714-10.615 8.157-11.553 5.444-.935 10.615 2.715 11.552 8.157.537 3.116 1.025 6.306 1.45 9.48.734 5.474-3.108 10.506-8.583 11.24-.451.06-.899.09-1.341.09z"/><path d="m177.195 395.945c-3.645 0-7.158-2-8.923-5.472-5.189-10.211-7.957-21.112-8.229-32.398-.133-5.522 4.235-10.104 9.757-10.237 5.55-.129 10.105 4.235 10.237 9.757.199 8.277 2.239 16.29 6.064 23.818 2.502 4.924.539 10.943-4.385 13.445-1.45.738-2.996 1.087-4.521 1.087z"/></g></g></svg>